<?xml version="1.0" encoding="UTF-8"?>
<svg version="1.1" xmlns="http://www.w3.org/2000/svg" width="78" height="78">
<path d="M0 0 C8.67193614 6.93754891 13.29109374 13.68578121 16.8125 24.25 C17.74883998 37.29187834 17.11697233 48.2165598 8.375 58.6875 C7.20762284 59.89478749 6.02158548 61.08448517 4.8125 62.25 C3.925625 63.136875 3.03875 64.02375 2.125 64.9375 C-7.24334336 72.1288654 -17.64446585 73.52407776 -29.08105469 72.53662109 C-38.07026812 71.31347128 -45.01827095 66.64985444 -51.1875 60.25 C-52.5178125 58.9196875 -52.5178125 58.9196875 -53.875 57.5625 C-61.0663654 48.19415664 -62.46157776 37.79303415 -61.47412109 26.35644531 C-60.02307426 15.6923635 -53.77707694 8.64003012 -46.3125 1.5 C-32.18566522 -8.67132104 -14.87695371 -8.16773929 0 0 Z " fill="#F68356" transform="translate(61.1875,5.75)"/>
<path d="M0 0 C1.32 0.66 2.64 1.32 4 2 C2.5045292 5.59721356 0.47293692 7.63097221 -2.4375 10.1875 C-3.32050781 10.96351562 -4.20351563 11.73953125 -5.11328125 12.5390625 C-9.68213525 16.43402599 -14.32131076 20.23747995 -19 24 C-22.55898193 22.53546319 -24.40174151 20.6456231 -26.75 17.625 C-27.36359375 16.85414062 -27.9771875 16.08328125 -28.609375 15.2890625 C-30 13 -30 13 -30 9 C-26 9 -26 9 -24.296875 10.53125 C-23.53117187 11.50578125 -23.53117187 11.50578125 -22.75 12.5 C-22.22921875 13.1496875 -21.7084375 13.799375 -21.171875 14.46875 C-20.59179688 15.22671875 -20.59179688 15.22671875 -20 16 C-17.06372048 14.65459276 -14.78720554 13.1243779 -12.36328125 10.99609375 C-11.37424805 10.13274414 -11.37424805 10.13274414 -10.36523438 9.25195312 C-9.68783203 8.65318359 -9.01042969 8.05441406 -8.3125 7.4375 C-7.62349609 6.83486328 -6.93449219 6.23222656 -6.22460938 5.61132812 C-3.04976415 2.87323743 -3.04976415 2.87323743 0 0 Z " fill="#FFF7F6" transform="translate(53,29)"/>
</svg>
