<?xml version="1.0" encoding="UTF-8"?>
<svg version="1.1" xmlns="http://www.w3.org/2000/svg" width="512" height="512">
<path d="M0 0 C1.30324219 0.67095703 1.30324219 0.67095703 2.6328125 1.35546875 C13.61160925 7.46754515 20.67325398 16.12475886 25.10546875 27.94921875 C27.99138759 38.09735589 28.13201189 47.69528326 24.96899414 57.74438477 C24.60222061 58.91566422 24.23544708 60.08694366 23.8575592 61.29371643 C23.57456467 62.18679001 23.29157013 63.07986359 23 64 C23.90852345 63.99539104 24.81704689 63.99078207 25.75310135 63.98603344 C47.84419559 63.87568375 69.93524242 63.79290647 92.02655411 63.74093914 C102.70969786 63.71514109 113.39265781 63.67995993 124.07568359 63.62280273 C133.3853946 63.57301684 142.69497253 63.54072064 152.00481296 63.52955753 C156.93584333 63.52303061 161.86649292 63.5076573 166.79740143 63.47134972 C171.43658102 63.43746627 176.0752222 63.42693151 180.71451378 63.43446159 C182.41894899 63.43308361 184.1234018 63.42310542 185.82773018 63.40397263 C188.15227803 63.37915259 190.47478396 63.38505231 192.79937744 63.39872742 C194.10094913 63.39411845 195.40252083 63.38950949 196.74353409 63.38476086 C200 64 200 64 202.45003891 66.41257954 C204 69 204 69 204 71 C207.10579494 70.97720599 210.20790484 70.89992181 213.3125 70.8125 C214.19357422 70.80669922 215.07464844 70.80089844 215.98242188 70.79492188 C218.42158956 70.71145226 220.63037707 70.5891138 223 70 C225.06247007 67.6493453 225.06247007 67.6493453 226 65 C228.72268881 63.63865559 230.89877112 63.85020916 233.94677734 63.82299805 C235.19502289 63.81016281 236.44326843 63.79732758 237.7293396 63.78410339 C239.09820154 63.77593662 240.46706796 63.76849277 241.8359375 63.76171875 C242.52416218 63.75764322 243.21238686 63.7535677 243.92146683 63.74936867 C247.56352692 63.7285113 251.20554936 63.71420768 254.84765625 63.70483398 C258.60955699 63.69376449 262.37086703 63.65935848 266.13255882 63.61966228 C269.02535097 63.59352042 271.91800176 63.58514443 274.81090164 63.58155251 C276.19759744 63.57668088 277.58428669 63.56505032 278.97086716 63.54651451 C280.91191119 63.52217771 282.85324228 63.5255025 284.79443359 63.5300293 C285.89870697 63.52416306 287.00298035 63.51829681 288.14071655 63.51225281 C291.75793361 64.12929113 292.734137 65.15583294 295 68 C295.50139666 70.6339758 295.50139666 70.6339758 295.50336456 73.69772816 C295.51379555 74.86686278 295.52422654 76.03599741 295.53497362 77.24056035 C295.52605073 78.52603582 295.51712785 79.81151128 295.50793457 81.13594055 C295.51254245 82.51464201 295.51889461 83.89333856 295.52684355 85.27202481 C295.54357819 89.06509021 295.53527176 92.85775428 295.52289867 96.65082133 C295.51386635 100.74040199 295.52780949 104.82991254 295.53881836 108.91947937 C295.55663291 116.93581052 295.55274905 124.95199209 295.5411678 132.96832917 C295.53213834 139.48842709 295.53090739 146.00848306 295.53526306 152.52858543 C295.53587599 153.45623401 295.53648893 154.38388258 295.53712043 155.33964172 C295.53839935 157.22422162 295.5396962 159.10880152 295.5410108 160.9933814 C295.55242698 178.68184724 295.53929026 196.37023027 295.51780933 214.05868252 C295.49996985 229.21697908 295.5030144 244.37515297 295.52148438 259.53344727 C295.54292882 277.14107904 295.55129407 294.74863796 295.53903532 312.35628098 C295.53776117 314.23733436 295.53650369 316.11838775 295.53526306 317.99944115 C295.53464596 318.92489156 295.53402886 319.85034198 295.53339306 320.80383635 C295.52994843 327.3060688 295.53575 333.80825486 295.54518127 340.31048012 C295.55644382 348.24990605 295.55327366 356.18917396 295.5320583 364.12858198 C295.52159978 368.17501382 295.51733587 372.221183 295.53065491 376.26761246 C295.54269576 379.98221904 295.53582708 383.69632301 295.5147447 387.41088488 C295.50825656 389.37001151 295.52111035 391.32917387 295.53497362 393.28826219 C295.35930955 413.46026216 287.49887843 430.09187182 273.75 444.625 C268.98673536 449.27466038 263.75848475 452.70203722 258 456 C257.35675781 456.38929688 256.71351563 456.77859375 256.05078125 457.1796875 C244.4290326 463.68383317 231.41508133 464.58989065 218.4152832 464.50793457 C216.79610035 464.51255501 215.1769217 464.51891553 213.55775166 464.52684355 C209.1510676 464.54340321 204.74473404 464.53535204 200.33804941 464.52289867 C195.56904235 464.51379523 190.8000928 464.527844 186.03109741 464.53881836 C176.70548994 464.55655197 167.38001166 464.55278666 158.05439925 464.5411678 C150.47144627 464.53211338 142.88852935 464.53091814 135.30557251 464.53526306 C134.2239941 464.53587599 133.14241568 464.53648893 132.02806216 464.53712043 C129.83046713 464.53839941 127.63287211 464.53969626 125.4352771 464.5410108 C104.8558417 464.55240149 84.27647772 464.53932663 63.69705403 464.51780933 C46.06069559 464.49993974 28.42444248 464.50304427 10.78808594 464.52148438 C-9.72056339 464.5429178 -30.22915022 464.55130299 -50.73780918 464.53903532 C-52.92706361 464.5377612 -55.11631806 464.53650372 -57.30557251 464.53526306 C-58.9210661 464.53433741 -58.9210661 464.53433741 -60.56919593 464.53339306 C-68.13805472 464.52994757 -75.70687369 464.53575118 -83.27572632 464.54518127 C-92.50677984 464.55643013 -101.7376974 464.55330066 -110.96873546 464.5320583 C-115.67344308 464.52158667 -120.37792449 464.51735933 -125.08263016 464.53065491 C-129.39816031 464.54266571 -133.71325677 464.53587483 -138.02874815 464.5147447 C-139.581042 464.51031513 -141.13337328 464.51246171 -142.6856426 464.52224785 C-164.70373606 464.65029654 -182.0337161 457.45230358 -198.0625 442.375 C-210.01732007 430.06747561 -217.05444873 413.66406371 -217.375 396.5 C-217.41238281 395.74074219 -217.44976562 394.98148437 -217.48828125 394.19921875 C-217.49988281 393.46316406 -217.51148438 392.72710937 -217.5234375 391.96875 C-217.54325684 391.30294922 -217.56307617 390.63714844 -217.58349609 389.95117188 C-216.65153075 386.83474216 -214.6455618 385.77746971 -212 384 C-209.15885925 383.51898193 -209.15885925 383.51898193 -206.01635742 383.54589844 C-204.83551071 383.54620056 -203.654664 383.54650269 -202.43803406 383.54681396 C-201.17328751 383.56745911 -199.90854095 383.58810425 -198.60546875 383.609375 C-196.65173088 383.61786469 -196.65173088 383.61786469 -194.65852356 383.62652588 C-191.20753899 383.64174711 -187.75723538 383.68099684 -184.30651855 383.7253418 C-180.78061127 383.76637142 -177.25459319 383.78455318 -173.72851562 383.8046875 C-166.81873193 383.84749585 -159.90939872 383.91570349 -153 384 C-153.00151888 383.33287247 -153.00303776 382.66574494 -153.00460267 381.97840142 C-153.09405997 342.46384481 -153.16271837 302.94930123 -153.20426132 263.43466391 C-153.20926431 258.69309608 -153.21444159 253.95152846 -153.21972656 249.20996094 C-153.2207758 248.26597591 -153.22182505 247.32199089 -153.22290608 246.34940025 C-153.24032476 231.05226907 -153.27187049 215.75519784 -153.30861118 200.45810226 C-153.34597994 184.76899451 -153.36822723 169.07991823 -153.37635398 153.39076781 C-153.38185021 143.7049402 -153.39922705 134.01928203 -153.43166587 124.33350655 C-153.4527636 117.69710259 -153.45921083 111.06078658 -153.45400551 104.42435148 C-153.4514363 100.59193534 -153.45545254 96.75981586 -153.4768219 92.92745209 C-153.49979493 88.77730554 -153.49198104 84.62779542 -153.48101807 80.4776001 C-153.49266943 79.2597118 -153.5043208 78.04182351 -153.51632524 76.7870295 C-153.50836104 75.67831231 -153.50039685 74.56959511 -153.49219131 73.42728043 C-153.4937102 72.46886631 -153.49522908 71.5104522 -153.49679399 70.52299523 C-152.8462882 67.2193663 -151.64167233 66.03159741 -149 64 C-146.145965 63.62592676 -143.68433237 63.49275602 -140.83496094 63.54589844 C-140.0150769 63.54531433 -139.19519287 63.54473022 -138.35046387 63.54412842 C-135.64466789 63.5469117 -132.93997815 63.57801451 -130.234375 63.609375 C-128.3567973 63.61683654 -126.47921181 63.62252988 -124.60162354 63.62652588 C-119.66290742 63.64178909 -114.7246628 63.68107687 -109.78613281 63.7253418 C-104.74550759 63.76627965 -99.70480609 63.78453372 -94.6640625 63.8046875 C-84.77583465 63.84757041 -74.88795655 63.91583012 -65 64 C-65.20496094 63.46890625 -65.40992188 62.9378125 -65.62109375 62.390625 C-65.89050781 61.68421875 -66.15992188 60.9778125 -66.4375 60.25 C-66.70433594 59.55390625 -66.97117188 58.8578125 -67.24609375 58.140625 C-71.19938484 46.91573631 -69.95011607 33.65351068 -65 23 C-59.0566674 10.95508039 -50.1678642 2.69301548 -37.75 -2.3125 C-25.85256298 -6.01627645 -11.10612949 -5.8807866 0 0 Z " fill="#FCEDCC" transform="translate(217,26)"/>
<path d="M0 0 C1.30324219 0.67095703 1.30324219 0.67095703 2.6328125 1.35546875 C13.61160925 7.46754515 20.67325398 16.12475886 25.10546875 27.94921875 C27.99138759 38.09735589 28.13201189 47.69528326 24.96899414 57.74438477 C24.60222061 58.91566422 24.23544708 60.08694366 23.8575592 61.29371643 C23.57456467 62.18679001 23.29157013 63.07986359 23 64 C23.90852345 63.99539104 24.81704689 63.99078207 25.75310135 63.98603344 C47.84419559 63.87568375 69.93524242 63.79290647 92.02655411 63.74093914 C102.70969786 63.71514109 113.39265781 63.67995993 124.07568359 63.62280273 C133.3853946 63.57301684 142.69497253 63.54072064 152.00481296 63.52955753 C156.93584333 63.52303061 161.86649292 63.5076573 166.79740143 63.47134972 C171.43658102 63.43746627 176.0752222 63.42693151 180.71451378 63.43446159 C182.41894899 63.43308361 184.1234018 63.42310542 185.82773018 63.40397263 C188.15227803 63.37915259 190.47478396 63.38505231 192.79937744 63.39872742 C194.10094913 63.39411845 195.40252083 63.38950949 196.74353409 63.38476086 C200 64 200 64 202.45003891 66.34617329 C204 69 204 69 204 72.0625 C202.83115099 75.49599397 201.85569069 76.77980815 199 79 C195.80600357 79.50780869 195.80600357 79.50780869 191.95123291 79.51898193 C191.24136065 79.52648319 190.53148839 79.53398444 189.80010486 79.541713 C187.42145278 79.56201298 185.04375185 79.55388351 182.66503906 79.54589844 C180.96002763 79.55463224 179.25502439 79.56511735 177.55003357 79.57722473 C172.92018781 79.60512908 168.29060891 79.60848844 163.66069126 79.60750484 C158.82262226 79.61063014 153.98467412 79.63624034 149.14666748 79.65948486 C139.98469157 79.7000778 130.82278689 79.72039331 121.66073489 79.73345876 C111.23030501 79.74931765 100.79999654 79.78772858 90.36963701 79.82805204 C68.91313136 79.91049606 47.45663137 79.96456004 26 80 C26.45101074 80.43324585 26.90202148 80.8664917 27.36669922 81.31286621 C32.06226587 85.83126957 36.72928785 90.3777329 41.38085938 94.94140625 C43.11980907 96.64015651 44.86587541 98.33165363 46.61914062 100.015625 C49.14023523 102.43953456 51.63446645 104.88849776 54.125 107.34375 C54.91245605 108.08991577 55.69991211 108.83608154 56.51123047 109.6048584 C62.47465792 115.56328633 62.47465792 115.56328633 62.59375 120.41601562 C62 124 62 124 60.375 126 C57.10148517 127.37832203 55.54261375 127.68127187 52 127 C45.82433881 122.48372566 40.50260718 116.63640137 35.125 111.22265625 C34.31506592 110.41130722 33.50513184 109.59995819 32.6706543 108.76402283 C30.11138985 106.19920861 27.5556447 103.63092052 25 101.0625 C23.25413867 99.31161717 21.50804713 97.56096387 19.76171875 95.81054688 C15.50514802 91.54301384 11.25145284 87.27263134 7 83 C5.71416016 83.61488281 5.71416016 83.61488281 4.40234375 84.2421875 C-8.57350588 90.35707492 -20.47474829 93.53345418 -34.78125 90.08984375 C-41.74192378 87.56090736 -45.8083855 84.64371088 -52 80 C-80.38 79.67 -108.76 79.34 -138 79 C-138 179.98 -138 280.96 -138 385 C-110.28 385 -82.56 385 -54 385 C-50 389 -50 389 -49.4375 392.5 C-50 396 -50 396 -52.15115643 398.18868637 C-55.48031323 400.30538634 -57.23058333 400.49447779 -61.14399719 400.48101807 C-62.99700691 400.48926605 -62.99700691 400.48926605 -64.88745117 400.49768066 C-66.24829493 400.48352603 -67.60913474 400.46898681 -68.9699707 400.45410156 C-70.40911324 400.45297275 -71.84825809 400.45360761 -73.28739929 400.45587158 C-77.18800771 400.45701836 -81.08812323 400.43351541 -84.98861718 400.40557575 C-89.06718965 400.3805558 -93.14577364 400.37821964 -97.22441101 400.37347412 C-104.94503424 400.36104606 -112.66543068 400.32822684 -120.38595408 400.28807616 C-129.17668088 400.2433531 -137.96741855 400.22137008 -146.75823081 400.20129442 C-164.83894908 400.15949399 -182.9194563 400.08914532 -201 400 C-200.39551674 402.21524112 -199.7833229 404.42837897 -199.16796875 406.640625 C-198.82789795 407.87329102 -198.48782715 409.10595703 -198.13745117 410.37597656 C-193.96779114 423.66089469 -185.03667479 434.14968419 -173 441 C-172.03126953 441.56654297 -172.03126953 441.56654297 -171.04296875 442.14453125 C-161.15988128 447.51883747 -151.15251548 448.43761739 -140.07319641 448.36076355 C-138.69426727 448.36207436 -137.31533888 448.36470583 -135.93641442 448.36853105 C-132.17584728 448.37519394 -128.41553969 448.36330181 -124.65500557 448.34819686 C-120.58904011 448.33517966 -116.523088 448.33962996 -112.45710754 448.34190369 C-105.42201107 448.34347284 -98.38699839 448.33410115 -91.35192299 448.31719017 C-81.18053641 448.29275608 -71.00919014 448.2849904 -60.8377774 448.2812262 C-44.33331629 448.27466862 -27.82889979 448.25472631 -11.32446289 448.22631836 C4.70320412 448.19875982 20.73085899 448.17753503 36.75854492 448.16479492 C37.7473375 448.16400675 38.73613007 448.16321858 39.75488605 448.16240653 C44.71562066 448.15849127 49.67635534 448.15470018 54.63709009 448.15097082 C95.75809108 448.11989652 136.87904298 448.06707964 178 448 C177.44941925 447.52564011 176.8988385 447.05128021 176.33157349 446.56254578 C175.61001068 445.93693253 174.88844788 445.31131927 174.14501953 444.66674805 C173.42943878 444.04801315 172.71385803 443.42927826 171.97659302 442.79179382 C161.74449746 433.51633577 153.81345043 418.01804416 152.42578125 404.23046875 C152.34368408 403.43406982 152.26158691 402.6376709 152.17700195 401.81713867 C152.11859131 401.21748291 152.06018066 400.61782715 152 400 C151.09755208 400.00460896 150.19510416 400.00921793 149.26530933 400.01396656 C127.31573314 400.12434572 105.36620472 400.20710791 83.41640949 400.25906086 C72.80167492 400.28485217 62.1871255 400.32002049 51.57250977 400.37719727 C42.3217528 400.42700376 33.07112991 400.45928427 23.82024258 400.47044247 C18.92103714 400.47696589 14.02221531 400.49231705 9.12313271 400.52865028 C4.51267628 400.56256622 -0.09723821 400.57306188 -4.70780754 400.56553841 C-6.40053502 400.56691493 -8.09328045 400.57687384 -9.78590012 400.59602737 C-12.09696237 400.62089824 -14.40597741 400.61492909 -16.71708679 400.60127258 C-18.01036235 400.60588155 -19.30363791 400.61049051 -20.63610363 400.61523914 C-24.89759108 399.83583526 -26.40519007 398.4122352 -29 395 C-29 391.5623692 -28.79833408 389.22567245 -26.90164757 386.31371307 C-23.98479914 384.29866992 -20.99498379 384.5801125 -17.57363892 384.60559082 C-16.81097918 384.59949972 -16.04831944 384.59340861 -15.2625488 384.58713293 C-12.6991338 384.57044301 -10.13621228 384.57528717 -7.57275391 384.58007812 C-5.73807761 384.57274121 -3.90340594 384.56415609 -2.06874084 384.55441284 C2.9209682 384.53214709 7.91051236 384.52926873 12.90026426 384.53116035 C17.06288331 384.53127984 21.22546714 384.52272478 25.38807642 384.51438284 C35.20763462 384.49513012 45.02710779 384.49227157 54.84667969 384.49902344 C64.98227704 384.50566431 75.11751047 384.48280222 85.253034 384.44570971 C93.94951269 384.41503645 102.64587419 384.40365014 111.34240592 384.40754652 C116.53885131 384.40961667 121.73501366 384.40409401 126.93140793 384.37965393 C131.81855919 384.35742889 136.7051181 384.35922923 141.5922718 384.37958145 C143.38656764 384.38299916 145.18090301 384.37786976 146.97514534 384.36359787 C149.4240153 384.34546225 151.87086358 384.35810988 154.31967163 384.37854004 C155.0306684 384.36602219 155.74166516 384.35350434 156.47420728 384.34060717 C160.32151988 384.40947573 161.90776221 384.92600541 164.94901466 387.36574554 C167.39021398 390.50118492 167.51294801 391.8942334 167.4375 395.8125 C167.95270004 408.09375494 173.10160247 419.65328224 181 429 C181.59425781 429.70511719 182.18851562 430.41023438 182.80078125 431.13671875 C192.79017916 441.99475995 206.65240538 447.78943761 221.27856445 448.52099609 C237.49147671 448.83267709 251.96836959 442.41255752 263.7109375 431.37890625 C270.20053624 424.6345963 273.85000996 416.74236366 277 408 C277.34649282 407.05277541 277.69298565 406.10555082 278.04997826 405.12962246 C279.61789235 399.5189915 279.28754394 393.71243035 279.2784729 387.93385315 C279.28347984 386.59962261 279.2893568 385.2653951 279.29602563 383.93117183 C279.31179154 380.27566486 279.31525443 376.62023482 279.31667423 372.96469796 C279.32037424 369.01861335 279.33553273 365.07257066 279.34928894 361.12651062 C279.3715467 354.29327904 279.38656891 347.46006241 279.39665604 340.62680244 C279.41125076 330.74709995 279.43678982 320.86744951 279.46498732 310.98777758 C279.51044089 294.95809273 279.54706164 278.92840037 279.578125 262.89868164 C279.60831642 247.32868127 279.64266942 231.75869923 279.68261719 216.1887207 C279.68507874 215.22874719 279.68754028 214.26877368 279.69007643 213.27971006 C279.70245114 208.46373338 279.71490765 203.64775692 279.72740483 198.83178055 C279.83095114 158.88787913 279.92016149 118.94395543 280 79 C279.03613373 79.01332367 279.03613373 79.01332367 278.05279541 79.0269165 C271.36959725 79.11535648 264.6865651 79.17572054 258.00292969 79.21972656 C255.50806935 79.23985164 253.01325622 79.26715452 250.51855469 79.30175781 C246.93412632 79.35023457 243.35032115 79.3729602 239.765625 79.390625 C238.64883362 79.41127014 237.53204224 79.43191528 236.38140869 79.45318604 C234.82024323 79.45363922 234.82024323 79.45363922 233.22753906 79.45410156 C232.31264709 79.46298401 231.39775513 79.47186646 230.45513916 79.48101807 C227.22381497 78.84792755 226.05210515 77.51669453 224 75 C223.0625 72.5625 223.0625 72.5625 223 70 C225.19402985 65.40298507 225.19402985 65.40298507 228 64 C229.97998046 63.8881534 231.96371939 63.84070182 233.94677734 63.82299805 C235.19502289 63.81016281 236.44326843 63.79732758 237.7293396 63.78410339 C239.09820154 63.77593662 240.46706796 63.76849277 241.8359375 63.76171875 C242.52416218 63.75764322 243.21238686 63.7535677 243.92146683 63.74936867 C247.56352692 63.7285113 251.20554936 63.71420768 254.84765625 63.70483398 C258.60955699 63.69376449 262.37086703 63.65935848 266.13255882 63.61966228 C269.02535097 63.59352042 271.91800176 63.58514443 274.81090164 63.58155251 C276.19759744 63.57668088 277.58428669 63.56505032 278.97086716 63.54651451 C280.91191119 63.52217771 282.85324228 63.5255025 284.79443359 63.5300293 C285.89870697 63.52416306 287.00298035 63.51829681 288.14071655 63.51225281 C291.75793361 64.12929113 292.734137 65.15583294 295 68 C295.50139666 70.6339758 295.50139666 70.6339758 295.50336456 73.69772816 C295.51379555 74.86686278 295.52422654 76.03599741 295.53497362 77.24056035 C295.52605073 78.52603582 295.51712785 79.81151128 295.50793457 81.13594055 C295.51254245 82.51464201 295.51889461 83.89333856 295.52684355 85.27202481 C295.54357819 89.06509021 295.53527176 92.85775428 295.52289867 96.65082133 C295.51386635 100.74040199 295.52780949 104.82991254 295.53881836 108.91947937 C295.55663291 116.93581052 295.55274905 124.95199209 295.5411678 132.96832917 C295.53213834 139.48842709 295.53090739 146.00848306 295.53526306 152.52858543 C295.53587599 153.45623401 295.53648893 154.38388258 295.53712043 155.33964172 C295.53839935 157.22422162 295.5396962 159.10880152 295.5410108 160.9933814 C295.55242698 178.68184724 295.53929026 196.37023027 295.51780933 214.05868252 C295.49996985 229.21697908 295.5030144 244.37515297 295.52148438 259.53344727 C295.54292882 277.14107904 295.55129407 294.74863796 295.53903532 312.35628098 C295.53776117 314.23733436 295.53650369 316.11838775 295.53526306 317.99944115 C295.53464596 318.92489156 295.53402886 319.85034198 295.53339306 320.80383635 C295.52994843 327.3060688 295.53575 333.80825486 295.54518127 340.31048012 C295.55644382 348.24990605 295.55327366 356.18917396 295.5320583 364.12858198 C295.52159978 368.17501382 295.51733587 372.221183 295.53065491 376.26761246 C295.54269576 379.98221904 295.53582708 383.69632301 295.5147447 387.41088488 C295.50825656 389.37001151 295.52111035 391.32917387 295.53497362 393.28826219 C295.35930955 413.46026216 287.49887843 430.09187182 273.75 444.625 C268.98673536 449.27466038 263.75848475 452.70203722 258 456 C257.35675781 456.38929688 256.71351563 456.77859375 256.05078125 457.1796875 C244.4290326 463.68383317 231.41508133 464.58989065 218.4152832 464.50793457 C216.79610035 464.51255501 215.1769217 464.51891553 213.55775166 464.52684355 C209.1510676 464.54340321 204.74473404 464.53535204 200.33804941 464.52289867 C195.56904235 464.51379523 190.8000928 464.527844 186.03109741 464.53881836 C176.70548994 464.55655197 167.38001166 464.55278666 158.05439925 464.5411678 C150.47144627 464.53211338 142.88852935 464.53091814 135.30557251 464.53526306 C134.2239941 464.53587599 133.14241568 464.53648893 132.02806216 464.53712043 C129.83046713 464.53839941 127.63287211 464.53969626 125.4352771 464.5410108 C104.8558417 464.55240149 84.27647772 464.53932663 63.69705403 464.51780933 C46.06069559 464.49993974 28.42444248 464.50304427 10.78808594 464.52148438 C-9.72056339 464.5429178 -30.22915022 464.55130299 -50.73780918 464.53903532 C-52.92706361 464.5377612 -55.11631806 464.53650372 -57.30557251 464.53526306 C-58.9210661 464.53433741 -58.9210661 464.53433741 -60.56919593 464.53339306 C-68.13805472 464.52994757 -75.70687369 464.53575118 -83.27572632 464.54518127 C-92.50677984 464.55643013 -101.7376974 464.55330066 -110.96873546 464.5320583 C-115.67344308 464.52158667 -120.37792449 464.51735933 -125.08263016 464.53065491 C-129.39816031 464.54266571 -133.71325677 464.53587483 -138.02874815 464.5147447 C-139.581042 464.51031513 -141.13337328 464.51246171 -142.6856426 464.52224785 C-164.70373606 464.65029654 -182.0337161 457.45230358 -198.0625 442.375 C-210.01732007 430.06747561 -217.05444873 413.66406371 -217.375 396.5 C-217.41238281 395.74074219 -217.44976562 394.98148437 -217.48828125 394.19921875 C-217.49988281 393.46316406 -217.51148438 392.72710937 -217.5234375 391.96875 C-217.54325684 391.30294922 -217.56307617 390.63714844 -217.58349609 389.95117188 C-216.65153075 386.83474216 -214.6455618 385.77746971 -212 384 C-209.15885925 383.51898193 -209.15885925 383.51898193 -206.01635742 383.54589844 C-204.83551071 383.54620056 -203.654664 383.54650269 -202.43803406 383.54681396 C-201.17328751 383.56745911 -199.90854095 383.58810425 -198.60546875 383.609375 C-196.65173088 383.61786469 -196.65173088 383.61786469 -194.65852356 383.62652588 C-191.20753899 383.64174711 -187.75723538 383.68099684 -184.30651855 383.7253418 C-180.78061127 383.76637142 -177.25459319 383.78455318 -173.72851562 383.8046875 C-166.81873193 383.84749585 -159.90939872 383.91570349 -153 384 C-153.00151888 383.33287247 -153.00303776 382.66574494 -153.00460267 381.97840142 C-153.09405997 342.46384481 -153.16271837 302.94930123 -153.20426132 263.43466391 C-153.20926431 258.69309608 -153.21444159 253.95152846 -153.21972656 249.20996094 C-153.2207758 248.26597591 -153.22182505 247.32199089 -153.22290608 246.34940025 C-153.24032476 231.05226907 -153.27187049 215.75519784 -153.30861118 200.45810226 C-153.34597994 184.76899451 -153.36822723 169.07991823 -153.37635398 153.39076781 C-153.38185021 143.7049402 -153.39922705 134.01928203 -153.43166587 124.33350655 C-153.4527636 117.69710259 -153.45921083 111.06078658 -153.45400551 104.42435148 C-153.4514363 100.59193534 -153.45545254 96.75981586 -153.4768219 92.92745209 C-153.49979493 88.77730554 -153.49198104 84.62779542 -153.48101807 80.4776001 C-153.49266943 79.2597118 -153.5043208 78.04182351 -153.51632524 76.7870295 C-153.50836104 75.67831231 -153.50039685 74.56959511 -153.49219131 73.42728043 C-153.4937102 72.46886631 -153.49522908 71.5104522 -153.49679399 70.52299523 C-152.8462882 67.2193663 -151.64167233 66.03159741 -149 64 C-146.145965 63.62592676 -143.68433237 63.49275602 -140.83496094 63.54589844 C-140.0150769 63.54531433 -139.19519287 63.54473022 -138.35046387 63.54412842 C-135.64466789 63.5469117 -132.93997815 63.57801451 -130.234375 63.609375 C-128.3567973 63.61683654 -126.47921181 63.62252988 -124.60162354 63.62652588 C-119.66290742 63.64178909 -114.7246628 63.68107687 -109.78613281 63.7253418 C-104.74550759 63.76627965 -99.70480609 63.78453372 -94.6640625 63.8046875 C-84.77583465 63.84757041 -74.88795655 63.91583012 -65 64 C-65.20496094 63.46890625 -65.40992188 62.9378125 -65.62109375 62.390625 C-65.89050781 61.68421875 -66.15992188 60.9778125 -66.4375 60.25 C-66.70433594 59.55390625 -66.97117188 58.8578125 -67.24609375 58.140625 C-71.19938484 46.91573631 -69.95011607 33.65351068 -65 23 C-59.0566674 10.95508039 -50.1678642 2.69301548 -37.75 -2.3125 C-25.85256298 -6.01627645 -11.10612949 -5.8807866 0 0 Z " fill="#010000" transform="translate(217,26)"/>
<path d="M0 0 C6.93 0.33 13.86 0.66 21 1 C21.99 3.97 21.99 3.97 23 7 C26.52428191 8.17476064 29.32108465 8.139678 33.04240417 8.15821838 C33.76367266 8.16315636 34.48494115 8.16809434 35.22806627 8.17318195 C37.65098389 8.18857081 40.07387498 8.19692132 42.49682617 8.20532227 C44.23123916 8.2148997 45.9656498 8.2249097 47.70005798 8.23532104 C52.41459106 8.26239077 57.12913416 8.28338915 61.84370208 8.30332303 C66.76848545 8.32516982 71.69323783 8.3525649 76.61799622 8.37937927 C85.94644515 8.42932384 95.27491127 8.47425613 104.60339385 8.51740164 C115.22238704 8.56675894 125.84134913 8.62168265 136.46031225 8.67708123 C158.30684587 8.79092836 180.15340917 8.89776146 202 9 C202.26264648 10.01030273 202.52529297 11.02060547 202.79589844 12.06152344 C203.15024234 13.41084624 203.50474288 14.76012792 203.859375 16.109375 C204.11726807 17.10396729 204.11726807 17.10396729 204.38037109 18.11865234 C208.61650057 34.17653848 217.35227399 46.39542474 229 58 C186.85015207 58.11456108 144.70032217 58.20260757 102.55034927 58.25532665 C97.56888493 58.26157983 92.58742091 58.26805148 87.60595703 58.2746582 C86.61427928 58.27596976 85.62260153 58.27728131 84.60087293 58.2786326 C68.56494878 58.30036146 52.52911469 58.33976905 36.49324387 58.38576398 C20.02663153 58.43259883 3.5600662 58.46031023 -12.90661001 58.47044247 C-23.05922378 58.47728708 -33.21158297 58.49886834 -43.36411834 58.53958233 C-50.33561303 58.56610756 -57.306977 58.57397896 -64.27851844 58.56750689 C-68.29475342 58.56431913 -72.31054502 58.56904303 -76.32670021 58.59602737 C-99.01485656 58.74080491 -118.31920824 58.16373992 -135.8125 41.6875 C-143.79653041 33.24805252 -151.28378528 20.9001464 -151 9 C-150.25124226 8.99761165 -149.50248451 8.99522329 -148.73103714 8.99276257 C-130.52031118 8.9336517 -112.30972121 8.85812682 -94.09914017 8.76428509 C-85.29266811 8.71930078 -76.48623673 8.67989224 -67.6796875 8.65356445 C-60.00477005 8.63060567 -52.32998105 8.5972315 -44.65516543 8.55129844 C-40.59059915 8.5273375 -36.5261603 8.5086276 -32.46152496 8.50238609 C-28.63654819 8.49634814 -24.81189761 8.47639546 -20.98704147 8.44572449 C-19.58259468 8.43692348 -18.1781053 8.43322595 -16.77363205 8.43499184 C-14.85696485 8.43664098 -12.94031165 8.41820141 -11.02374268 8.39872742 C-9.95077564 8.39411845 -8.87780861 8.38950949 -7.77232742 8.38476086 C-4.56860413 7.9401282 -3.21493765 7.34836266 -1 5 C-0.67 3.35 -0.34 1.7 0 0 Z " fill="#FCDF9A" transform="translate(167,417)"/>
<path d="M0 0 C16.8137652 4.04177048 34.56920503 11.26513783 44.75390625 25.921875 C50.36112713 35.2731023 52.6495733 44.98619457 50.421875 55.80859375 C47.22627769 66.0490306 40.12980538 73.56298204 30.8125 78.6875 C20.29019955 83.59790688 10.31885908 86.16366523 -1.25 86.25 C-2.30960937 86.2809375 -2.30960937 86.2809375 -3.390625 86.3125 C-8.4294183 86.35067268 -8.4294183 86.35067268 -10.69741821 84.95678711 C-12.70165063 81.94595417 -12.41716805 78.85972994 -12.38818359 75.36328125 C-12.39344055 74.5873764 -12.39869751 73.81147156 -12.40411377 73.01205444 C-12.41732584 70.44533198 -12.40857166 67.87922886 -12.3984375 65.3125 C-12.40045789 63.5303536 -12.40336904 61.74820801 -12.40713501 59.96606445 C-12.41155999 56.23022595 -12.40512176 52.49460257 -12.39111328 48.75878906 C-12.37402124 43.96670916 -12.3838615 39.1751333 -12.40183067 34.3830719 C-12.41266385 30.70280144 -12.40922433 27.02265075 -12.4014473 23.34237671 C-12.39944399 21.57530661 -12.40190912 19.80822568 -12.40888596 18.04116821 C-12.41649285 15.57272476 -12.40490753 13.10510105 -12.38818359 10.63671875 C-12.39425629 9.90415863 -12.40032898 9.17159851 -12.40658569 8.4168396 C-12.37036064 5.53526584 -12.32700001 3.49185368 -10.70620728 1.05395508 C-7.32466804 -1.03488284 -3.76292172 -0.5310575 0 0 Z " fill="#050404" transform="translate(309,211)"/>
<path d="M0 0 C10.01091996 5.85884988 16.05509678 14.96285874 19.0546875 26.08203125 C21.27833214 38.5857561 19.52600344 50.9534999 12.8125 61.8125 C8.36658673 67.90463304 2.21633055 74.39848919 -5.4375 75.9375 C-13.56823783 76.71463145 -20.65971874 76.83341423 -27.4375 71.9375 C-28.03949219 71.525 -28.64148438 71.1125 -29.26171875 70.6875 C-37.41083901 64.46517824 -41.96827201 54.93306747 -43.4375 44.9375 C-44.72731369 31.57092334 -43.17782741 20.21253403 -35.1875 9 C-26.3943266 -1.47081833 -12.91851428 -6.06176439 0 0 Z " fill="#040303" transform="translate(420.4375,221.0625)"/>
<path d="M0 0 C10.56690724 4.73462976 16.08413326 13.72480635 20.08203125 24.19140625 C23.57873486 34.68151709 22.13232418 48.61965771 17.5625 58.52734375 C12.8256642 67.05114854 6.64085349 74.12484767 -2.91796875 77.19140625 C-11.37583016 78.19668349 -18.63370092 78.08720498 -25.7734375 73.01953125 C-33.15098202 66.73047691 -38.88087979 58.82865704 -40.91796875 49.19140625 C-41.16235648 45.81959608 -41.14908714 42.44621445 -41.16796875 39.06640625 C-41.18859375 38.16664063 -41.20921875 37.266875 -41.23046875 36.33984375 C-41.29947015 24.33359956 -37.50998846 14.98361745 -29.1171875 6.3359375 C-20.66586871 -1.25338425 -11.04557148 -3.06082101 0 0 Z " fill="#040403" transform="translate(241.91796875,219.80859375)"/>
<path d="M0 0 C6.88691649 4.33002026 11.44757774 11.34273321 14 19 C14.93453586 29.8713729 14.68413932 38.84383395 8 48 C1.63825858 55.48367643 -5.70872848 59.17372701 -15.390625 60.4453125 C-25.20100799 60.94231428 -32.33537778 58.27970539 -40.125 52.39453125 C-46.71280264 46.41723618 -50.21493363 38.47118991 -51.2734375 29.74609375 C-51.67404771 20.63991545 -48.45207667 12.58311975 -42.6875 5.5625 C-30.78969329 -6.87846745 -14.84526392 -8.23038897 0 0 Z " fill="#7B54CA" transform="translate(214,42)"/>
<path d="M0 0 C0.68577781 -0.0060911 1.37155562 -0.01218221 2.07811457 -0.01845789 C4.38130957 -0.0351375 6.68395472 -0.03030524 8.98719788 -0.0255127 C10.63630754 -0.03285017 12.28541206 -0.04143546 13.93450928 -0.05117798 C18.41797359 -0.07343647 22.90125436 -0.07632251 27.38476634 -0.07443047 C31.12497554 -0.07431097 34.86514555 -0.08286667 38.60534388 -0.09120798 C47.42764198 -0.11045759 56.24984546 -0.11332018 65.07215881 -0.10656738 C74.17964507 -0.09992471 83.28672651 -0.12279638 92.39413065 -0.15988111 C100.20822552 -0.19054744 108.02218996 -0.2019415 115.83634382 -0.1980443 C120.50571441 -0.19597365 125.17477005 -0.2015045 129.84408379 -0.22593689 C134.23468487 -0.24815108 138.62462645 -0.2463711 143.01523018 -0.22600937 C144.6277276 -0.22258984 146.24026895 -0.22772893 147.85270691 -0.24199295 C150.05240049 -0.26011107 152.24983885 -0.24749634 154.44946289 -0.22705078 C156.2964221 -0.22811954 156.2964221 -0.22811954 158.18069363 -0.2292099 C161.28822327 0.39440918 161.28822327 0.39440918 163.71173954 2.74184418 C165.28822327 5.39440918 165.28822327 5.39440918 165.35072327 8.45690918 C164.00339706 12.18186987 162.5977337 13.25443343 159.28822327 15.39440918 C156.1257019 15.89777374 156.1257019 15.89777374 152.49452209 15.90234375 C151.82407521 15.90858371 151.15362833 15.91482368 150.46286488 15.92125273 C148.22330036 15.93716806 145.9848265 15.92458542 143.74525452 15.9119873 C142.13688015 15.91740912 140.52851075 15.92453211 138.92015076 15.93322754 C134.55648997 15.95145693 130.19320763 15.94439504 125.82954025 15.9317112 C121.26212802 15.92158151 116.69474811 15.93097679 112.12733459 15.93725586 C104.45727218 15.94453236 96.78736385 15.93494451 89.11732483 15.91589355 C80.25070123 15.89412478 71.38444554 15.90117615 62.51783085 15.92319918 C54.90409478 15.94135312 47.29046944 15.94391154 39.67671871 15.9334445 C35.12981066 15.92720953 30.58307552 15.92637401 26.03617859 15.93959045 C21.7613211 15.95114828 17.48693778 15.94312471 13.2121315 15.92001343 C11.64360466 15.91472594 10.07503789 15.91624085 8.50652695 15.92506409 C6.36445476 15.93600248 4.22390002 15.92227948 2.08192444 15.90234375 C0.28449043 15.9000816 0.28449043 15.9000816 -1.54925537 15.89777374 C-5.33867376 15.29462875 -7.01246664 14.07193099 -9.71177673 11.39440918 C-10.57095128 8.44947536 -10.11033883 6.53308569 -9.71177673 3.39440918 C-7.25797346 -0.40503303 -4.24767259 0.01286699 0 0 Z " fill="#050504" transform="translate(218.71177673339844,322.6055908203125)"/>
<path d="M0 0 C1.13384628 -0.00241196 2.26769257 -0.00482391 3.43589783 -0.00730896 C5.82717393 -0.00633156 8.21847296 0.00703609 10.60961914 0.03198242 C14.26852241 0.06632346 17.92501432 0.05262519 21.58398438 0.03320312 C23.91016652 0.04010081 26.23634245 0.04977249 28.5625 0.0625 C29.65530777 0.05754013 30.74811554 0.05258026 31.8740387 0.04747009 C39.39791231 0.16413166 39.39791231 0.16413166 43.40795898 2.44555664 C45.21484375 4.62890625 45.21484375 4.62890625 45.77734375 8.12890625 C45.21484375 11.62890625 45.21484375 11.62890625 43.8203125 13.83203125 C39.75336306 16.63682397 35.7756297 16.05408893 30.96484375 15.87890625 C30.02898437 15.86085937 29.093125 15.8428125 28.12890625 15.82421875 C25.8231736 15.77716298 23.5195343 15.71144338 21.21484375 15.62890625 C21.22150558 16.37170837 21.22816742 17.1145105 21.23503113 17.87982178 C21.29516704 24.88343023 21.34083065 31.8869491 21.37028027 38.89074326 C21.38592971 42.49140191 21.40715433 46.09184704 21.44116211 49.69238281 C21.47378203 53.16776882 21.49170219 56.64294958 21.49947548 60.11847687 C21.50770814 62.08831049 21.53112348 64.05806166 21.55473328 66.027771 C21.55495987 67.22871399 21.55518646 68.42965698 21.55541992 69.66699219 C21.56208176 70.7240033 21.56874359 71.7810144 21.5756073 72.87005615 C21.1602443 76.04644203 20.51327192 77.41345875 18.21484375 79.62890625 C12.74396996 80.41045965 12.74396996 80.41045965 10.21484375 79.62890625 C6.71532274 76.00891652 5.71710507 73.74441932 5.76074219 68.73706055 C5.76119537 66.99582161 5.76119537 66.99582161 5.76165771 65.21940613 C5.79262543 63.35509697 5.79262543 63.35509697 5.82421875 61.453125 C5.82987854 60.17282913 5.83553833 58.89253326 5.84136963 57.57344055 C5.85658923 54.18163412 5.89583741 50.79052077 5.94018555 47.39898682 C5.98121879 43.93340428 5.9993977 40.46770895 6.01953125 37.00195312 C6.06361538 30.21063789 6.13054197 23.41983489 6.21484375 16.62890625 C4.97347656 16.6753125 3.73210937 16.72171875 2.453125 16.76953125 C0.81122204 16.80706046 -0.83070702 16.84345939 -2.47265625 16.87890625 C-3.28927734 16.91242188 -4.10589844 16.9459375 -4.94726562 16.98046875 C-9.02383649 17.04648609 -11.22187637 16.96614264 -14.79296875 14.828125 C-16.78515625 12.62890625 -16.78515625 12.62890625 -17.97265625 9.19140625 C-17.78515625 5.62890625 -17.78515625 5.62890625 -15.51000977 2.94555664 C-10.88277212 -0.62216976 -5.60233557 -0.06809503 0 0 Z " fill="#070706" transform="translate(153.78515625,217.37109375)"/>
<path d="M0 0 C0.9238298 -0.01134979 1.84765961 -0.02269958 2.79948425 -0.03439331 C3.80582916 -0.03146271 4.81217407 -0.0285321 5.84901428 -0.0255127 C6.91445969 -0.03398224 7.97990509 -0.04245178 9.07763672 -0.05117798 C12.6031942 -0.07459677 16.12831651 -0.07556896 19.65394592 -0.07434082 C22.10247982 -0.08143929 24.55101204 -0.08913783 26.99954224 -0.09741211 C32.13333255 -0.11086807 37.26696906 -0.11242055 42.40077209 -0.10656738 C48.98298693 -0.10066961 55.56446462 -0.13126199 62.14653683 -0.17168427 C67.20371484 -0.19751989 72.26071438 -0.20044241 77.3179493 -0.1967926 C79.74487219 -0.19848764 82.17180299 -0.20816677 84.59866142 -0.22593689 C87.99120964 -0.24804421 91.38225295 -0.23846509 94.77479553 -0.2208252 C95.77911621 -0.23408844 96.78343689 -0.24735168 97.81819153 -0.26101685 C102.5009768 -0.20437364 104.68134408 -0.12283516 108.53140259 2.74145508 C110.37660217 5.39440918 110.37660217 5.39440918 110.50160217 8.45690918 C109.04356264 12.26401241 107.88798483 13.29120066 104.37660217 15.39440918 C100.87413039 15.98528214 97.41171529 15.94083701 93.86659241 15.9119873 C92.28042618 15.92250122 92.28042618 15.92250122 90.66221619 15.93322754 C87.16960839 15.95082166 83.67781185 15.93917993 80.18519592 15.92565918 C77.75811609 15.92835347 75.33103731 15.93223536 72.90396118 15.93725586 C67.81897193 15.94315269 62.73426382 15.93458084 57.64930725 15.91589355 C51.12650169 15.89309224 44.60435401 15.9062341 38.08157253 15.93018341 C33.07075019 15.94462574 28.06008428 15.9400427 23.04925728 15.92967224 C20.64385462 15.92700128 18.23843783 15.93028764 15.83305168 15.93959045 C12.47405648 15.94973116 9.11613265 15.93428886 5.75721741 15.9119873 C4.26172615 15.92413269 4.26172615 15.92413269 2.73602295 15.93652344 C-3.99295715 15.85361229 -3.99295715 15.85361229 -7.23898315 13.48925781 C-9.62085608 9.88508969 -9.16378515 7.64995938 -8.62339783 3.39440918 C-5.8572967 0.66140125 -3.83251378 0.01784071 0 0 Z " fill="#050404" transform="translate(233.62339782714844,362.6055908203125)"/>
<path d="M0 0 C12.24174739 3.67252422 23.3840475 7.91583887 30.37890625 19.23046875 C33.16101512 24.8625428 34.33776349 29.95664744 32.3046875 36.1015625 C28.83948175 43.87643591 22.64579984 47.85789048 15 51 C10.05 51.99 5.1 52.98 0 54 C0 36.18 0 18.36 0 0 Z " fill="#FBEDCB" transform="translate(312,228)"/>
<path d="M0 0 C5.74956856 2.98367763 8.75228884 8.10902075 11 14 C13.51181261 21.95407327 12.36362181 30.5109104 9 38 C6.59661873 42.24597357 4.2823877 45.57951999 0 48 C-4.64486984 48.75115057 -8.55536676 48.70626514 -12.8125 46.625 C-19.84524484 38.18570619 -21.99484121 28.74819697 -21.27832031 17.97460938 C-20.39581783 11.71348647 -17.11630035 6.01994847 -12.59765625 1.70703125 C-8.44591587 -1.02125529 -4.79320931 -0.97362064 0 0 Z " fill="#FAEBCA" transform="translate(413,234)"/>
<path d="M0 0 C5.56941483 2.57049915 8.26784635 6.69896882 11 12 C13.63035833 19.89107499 13.42006525 31.33190902 9.8125 38.875 C7.28010686 43.05488755 4.38612816 45.80693592 0 48 C-4.82553712 48.6755752 -8.08622615 48.55171251 -12.3125 46 C-17.69212121 40.76981271 -20.10412376 33.53292105 -20.34326172 26.19824219 C-20.47178931 17.04312269 -19.47665867 10.66698409 -13.6484375 3.2890625 C-9.66768201 -0.7361707 -5.27828693 -0.99679879 0 0 Z " fill="#FBECCA" transform="translate(236,234)"/>
<path d="M0 0 C0.03867188 1.34191406 0.03867188 1.34191406 0.078125 2.7109375 C0.66501229 15.22230754 3.88486758 25.96824804 13 34.9765625 C18.4768981 39.57324483 24.21016506 41.92965689 31 44 C31.99 44.33 32.98 44.66 34 45 C36.06145107 45.068991 38.12501401 45.08467727 40.1875 45.0625 C41.27417969 45.05347656 42.36085937 45.04445312 43.48046875 45.03515625 C44.72763672 45.01775391 44.72763672 45.01775391 46 45 C40.87906488 51.87283398 34.57935777 56.38937707 26 58 C14.84455808 59.13566999 6.84060742 57.1681795 -2.125 50.39453125 C-8.71280264 44.41723618 -12.21493363 36.47118991 -13.2734375 27.74609375 C-13.68529544 18.38424599 -10.31343378 10.32608973 -4.25 3.25 C-1.21138211 0 -1.21138211 0 0 0 Z " fill="#5A2ABC" transform="translate(176,44)"/>
</svg>
